<svg height="512pt" viewBox="0 0 512 512" width="512pt" xmlns="http://www.w3.org/2000/svg" xmlns:xlink="http://www.w3.org/1999/xlink"><linearGradient id="a" gradientUnits="userSpaceOnUse" x1="0" x2="512" y1="256" y2="256"><stop offset="0" stop-color="#00f38d"/><stop offset="1" stop-color="#009eff"/></linearGradient><path d="m512 256c0 141.386719-114.613281 256-256 256s-256-114.613281-256-256 114.613281-256 256-256 256 114.613281 256 256zm0 0" fill="url(#a)"/><g fill="#fff"><path d="m241.910156 252.613281h28.179688v28.175781h-28.179688zm0 0"/><path d="m365.140625 174.40625v-81.050781h-218.28125v81.050781l-52.898437 39.457031-.605469.449219v165.066406c0 21.648438 17.613281 39.265625 39.265625 39.265625h246.753906c21.652344 0 39.269531-17.617187 39.269531-39.265625v-165.066406zm14.234375 216.058594h-246.753906c-6.113282 0-11.085938-4.972656-11.085938-11.085938v-131.558594l134.464844 100.015626 134.464844-100.015626v131.558594c0 6.113282-4.972656 11.085938-11.089844 11.085938zm-42.414062-268.929688v130.964844l-80.960938 60.21875-80.960938-60.21875v-130.964844zm28.179687 110.003906v-21.980468l14.753906 11.003906zm-233.035156-10.976562 14.753906-11.003906v21.980468zm0 0"/><path d="m241.132812 184.871094c0-4 1.660157-7.691406 4.671876-10.386719 3.257812-2.917969 7.542968-4.257813 12.074218-3.75 6.757813.742187 12.1875 6.054687 12.917969 12.625.503906 4.550781-1.957031 9.164063-8.230469 15.417969-1.675781 1.667968-3.242187 3.152344-4.8125 4.636718-8.144531 7.707032-15.839844 14.988282-15.839844 30.640626v2.042968h28.179688v-2.042968c0-3.1875 0-3.519532 7.027344-10.171876 1.488281-1.410156 3.34375-3.164062 5.335937-5.148437 7.96875-7.9375 18.332031-20.570313 16.347657-38.476563-2.167969-19.574218-18.082032-35.359374-37.839844-37.535156-12.421875-1.363281-24.796875 2.558594-33.960938 10.773438-8.929687 7.996094-14.050781 19.433594-14.050781 31.375v1.5h28.179687zm0 0"/></g></svg>